# xmcd
#
# Track frame offsets:
#	150
#	10942
#	24206
#	42551
#	57595
#	73561
#	90963
#	101462
#	117509
#	127234
#	135310
#	151531
#	166713
#	177586
#	191581
#	207876
#
# Disc length: 3037 seconds
#
# Revision: 0
# Processed by: cddbd v1.5.2PL0 Copyright (c) Steve Scherf et al.
# Submitted via: EasyCDDAExtractor 16.0.8.2
#
DISCID=cf0bdb10
DTITLE=Συλλογικός δίσκος - Δημοτικό πανηγύρι 3
DYEAR=2015
DGENRE=Παραδοσιακή
TTITLE0=Βελισσάρης Γιώργος - Στον χορό σαν μπαίνεις [Κ. Πίτσος]
TTITLE1=Καψάλης Γιάννης - Τα λεφτά μας είναι λίγα [Τσίκος-Τασιούλη-Παπακώστα]
TTITLE2=Κατσιγιάννη Τζένη - Θα ρίξω πέρδικας φτερά-Λεβέντη μου με άλογο[Φωτίου
TTITLE2=Κόρος]
TTITLE3=Γρίβα Γιώτα - Γιασεμάκι μου [Κ. Πίτσος-Γ. Σιέττος]
TTITLE4=Καψάλης Γιάννης - Για μαζέψου βρε γυναίκα [Τσίκος-Σούρλας]
TTITLE5=Πυργάκη Φιλιώ - Ένας μοίραρχος [Φ. Κατσιγιάννης]
TTITLE6=Σιέττος Γιάννης - Φαντάζεσαι την άνοιξη [Γ. Σιέττος-Δ. Κατσαούνης]
TTITLE7=Γρίβα Γιώτα - Βρε καρδιά τι πας να κάνεις [Μ. Τσίκος-Ρούλα Βλάχου]
TTITLE8=Κατσιγιάννης Γιάννης - Να ρίξω θέλω μιά βροχή [Γ. Πίας]
TTITLE9=Θώδη Έφη - Ο ήλιος βασιλεύει [Γ. Παπασιδέρης-Χαρ. Βασιλειάδης]
TTITLE10=Σιέττος Γιάννης - Νά 'χα την χάρη σου αητέ-Παπαδοπούλα [Α.Δήμου-Λ.Χατ
TTITLE10=ζής]
TTITLE11=Κατσιγιάννη Τζένη - Τώρα το βράδυ βράδυ [παραδοσιακό]
TTITLE12=Βέρρα Χαρά - Μιά παράνομη αγάπη [Κ. Πίτσος-Σωτ. Κόρδας]
TTITLE13=Θώδη Έφη - Μπρος στην φωτογραφία σου [Γ. Κόρος-Ηλ. Πατρινός]
TTITLE14=Παππά Λούλα - Τα κόκκινα γαρύφαλλα [Βαγγ. Φιλίππου-Δ. Κατσαούνης]
TTITLE15=Κατσιγιάννης Γιάννης - Στης πικροδάφνης τον ανθό-Ο γιατρός-Αγάπη ξημέ
TTITLE15=ρωσε
EXTD=
EXTT0=
EXTT1=
EXTT2=
EXTT3=
EXTT4=
EXTT5=
EXTT6=
EXTT7=
EXTT8=
EXTT9=
EXTT10=
EXTT11=
EXTT12=
EXTT13=
EXTT14=
EXTT15=
PLAYORDER=
